<svg id="Layer_1" data-name="Layer 1" xmlns="http://www.w3.org/2000/svg" viewBox="0 0 619.1 136.85"><defs><style>.cls-1{fill:#fff;}.cls-2{fill:#eaeaea;}</style></defs><path class="cls-1" d="M297.58,723.39l1.46-84H319l9.23,48.87,10-48.87h19.19l1.46,84H345.63l-1.56-55.93-9.75,55.93H322.59L312.21,667,311,723.39Z" transform="translate(-297.58 -638.2)"/><path class="cls-1" d="M382.36,724.43a13.1,13.1,0,0,1-7.68-2.18A13.7,13.7,0,0,1,370,716.7a16.42,16.42,0,0,1-1.55-6.9,18.51,18.51,0,0,1,2.23-9.45,20.46,20.46,0,0,1,5.86-6.43,40.24,40.24,0,0,1,8-4.41q4.36-1.82,8.61-3.27v-6a10.9,10.9,0,0,0-.31-2.75,3.75,3.75,0,0,0-1-1.86,3.09,3.09,0,0,0-2.18-.68,3.54,3.54,0,0,0-2.23.62,3.37,3.37,0,0,0-1.09,1.72,12.94,12.94,0,0,0-.41,2.43l-.42,4.36-15.77-.62q.53-10.79,5.76-15.93t15.72-5.13q9.13,0,13.65,5t4.51,13v28q0,3.74.16,6.54c.1,1.86.24,3.49.41,4.87s.33,2.56.47,3.53H395.23c-.21-1.59-.45-3.32-.73-5.19a22.32,22.32,0,0,0-.62-3.32,15.12,15.12,0,0,1-3.89,6.64A10.22,10.22,0,0,1,382.36,724.43Zm6-11.42a4.41,4.41,0,0,0,1.92-.41,5.91,5.91,0,0,0,1.61-1.14,11.47,11.47,0,0,0,1.24-1.46V693.61q-2.07,1.25-3.84,2.54a16.42,16.42,0,0,0-3,2.85,12.23,12.23,0,0,0-1.92,3.38,11.72,11.72,0,0,0-.67,4.1,8.15,8.15,0,0,0,1.25,4.77A4,4,0,0,0,388.38,713Z" transform="translate(-297.58 -638.2)"/><path class="cls-1" d="M437.88,724.43q-7.89,0-13.13-3.53t-8.56-11.52l11.52-5.08a20.15,20.15,0,0,0,3.89,6.38,6.7,6.7,0,0,0,4.93,2.33,4.49,4.49,0,0,0,3-.83,2.83,2.83,0,0,0,1-2.28,6.31,6.31,0,0,0-1.81-4.36,74,74,0,0,0-6.49-5.81l-4.36-3.63a45.84,45.84,0,0,1-7.52-7.84,15.49,15.49,0,0,1-2.75-9.39,14.89,14.89,0,0,1,2.54-8.61,17.12,17.12,0,0,1,6.8-5.81,20.57,20.57,0,0,1,9.13-2.07,18.94,18.94,0,0,1,12.35,4,21.24,21.24,0,0,1,6.95,11.42l-10.9,5a19.55,19.55,0,0,0-1.76-4,12.47,12.47,0,0,0-2.75-3.32,5.35,5.35,0,0,0-3.48-1.35,3.7,3.7,0,0,0-2.64.94,3.25,3.25,0,0,0-1,2.49c0,1.31.75,2.73,2.23,4.25a74.57,74.57,0,0,0,6.18,5.5l4.25,3.74q2.6,2.18,5.09,4.67a23.39,23.39,0,0,1,4.1,5.5,14.31,14.31,0,0,1,1.6,6.85,15,15,0,0,1-2.59,8.87,16.15,16.15,0,0,1-6.8,5.55A21.75,21.75,0,0,1,437.88,724.43Z" transform="translate(-297.58 -638.2)"/><path class="cls-1" d="M482,724q-6.75,0-10.43-2a10.23,10.23,0,0,1-5-5.76,27.44,27.44,0,0,1-1.35-9.18V674.52h-5.81V663.41h5.81V645.15h17.12v18.26h8.51v11.11h-8.51v30.92a4.38,4.38,0,0,0,1.5,3.73,6.06,6.06,0,0,0,3.79,1.15,19.07,19.07,0,0,0,2.49-.16l2.08-.26v13.28c-.9.14-2.32.31-4.26.52A54.75,54.75,0,0,1,482,724Z" transform="translate(-297.58 -638.2)"/><path class="cls-1" d="M519.75,724.43a24.8,24.8,0,0,1-11.21-2.34,16.33,16.33,0,0,1-7.16-6.84,22.16,22.16,0,0,1-2.49-10.85v-22a22,22,0,0,1,2.49-10.89,16.37,16.37,0,0,1,7.21-6.8,24.88,24.88,0,0,1,11.16-2.33,23.91,23.91,0,0,1,11,2.28,14.94,14.94,0,0,1,6.64,6.74,24.42,24.42,0,0,1,2.23,11v12H515.6V706a11.12,11.12,0,0,0,.52,3.73,4,4,0,0,0,1.45,2.08,3.87,3.87,0,0,0,2.18.62,4.38,4.38,0,0,0,2.23-.57,3.88,3.88,0,0,0,1.56-1.82,8.38,8.38,0,0,0,.57-3.42v-6.33h15.56v5.81q0,9.13-5.29,13.75T519.75,724.43Zm-4.15-37.88h8.51v-6a9.83,9.83,0,0,0-.57-3.73,3.57,3.57,0,0,0-1.56-1.87,4.91,4.91,0,0,0-2.33-.52,3.64,3.64,0,0,0-2.13.62,4.16,4.16,0,0,0-1.4,2.13,13.76,13.76,0,0,0-.52,4.31Z" transform="translate(-297.58 -638.2)"/><path class="cls-1" d="M549.11,723.39v-60H566v10a33.22,33.22,0,0,1,5.81-7.93,9.87,9.87,0,0,1,7.06-2.75c.55,0,1,0,1.45,0a3.8,3.8,0,0,1,1.14.26v16.81a15.1,15.1,0,0,0-2.54-.88,11.43,11.43,0,0,0-3-.37,10,10,0,0,0-5.4,1.56,17.63,17.63,0,0,0-4.56,4.25v39Z" transform="translate(-297.58 -638.2)"/><path class="cls-1" d="M638.46,724.64a27.92,27.92,0,0,1-13.18-2.81,17.88,17.88,0,0,1-8-8.66q-2.7-5.86-3-15.2l15.88-2.39a37.36,37.36,0,0,0,1,8.72,9.71,9.71,0,0,0,2.49,4.77,5.6,5.6,0,0,0,3.89,1.45c1.94,0,3.2-.65,3.79-2a10,10,0,0,0,.88-4.15,15,15,0,0,0-2.49-8.77,39.25,39.25,0,0,0-6.74-7.21l-7.27-6.33a40.69,40.69,0,0,1-8-9.18,23.23,23.23,0,0,1-3.27-12.71q0-10.69,6.33-16.35t17.23-5.65q6.75,0,10.84,2.28a15.88,15.88,0,0,1,6.23,6,24.62,24.62,0,0,1,2.91,7.78,50.46,50.46,0,0,1,.88,7.83l-16,2a64.43,64.43,0,0,0-.47-6.49,8.86,8.86,0,0,0-1.51-4.26,4.13,4.13,0,0,0-3.52-1.5,4,4,0,0,0-3.79,2.18,9,9,0,0,0-1.19,4.36,12.34,12.34,0,0,0,2.23,7.63,42.67,42.67,0,0,0,5.86,6.17l7,6.12a47.15,47.15,0,0,1,9.29,10.59q3.78,5.91,3.79,14.63a21.63,21.63,0,0,1-2.7,10.74,19.68,19.68,0,0,1-7.63,7.62A23.2,23.2,0,0,1,638.46,724.64Z" transform="translate(-297.58 -638.2)"/><path class="cls-1" d="M688.16,724.43a24.73,24.73,0,0,1-11.2-2.34,16.35,16.35,0,0,1-7.17-6.84,22.16,22.16,0,0,1-2.49-10.85v-22a22,22,0,0,1,2.49-10.89,16.39,16.39,0,0,1,7.22-6.8,24.81,24.81,0,0,1,11.15-2.33,23.91,23.91,0,0,1,11.05,2.28,14.89,14.89,0,0,1,6.64,6.74,24.41,24.41,0,0,1,2.24,11v12H684V706a11.12,11.12,0,0,0,.52,3.73,4.07,4.07,0,0,0,1.45,2.08,3.89,3.89,0,0,0,2.18.62,4.35,4.35,0,0,0,2.23-.57A3.88,3.88,0,0,0,692,710a8.38,8.38,0,0,0,.57-3.42v-6.33h15.57v5.81q0,9.13-5.3,13.75T688.16,724.43ZM684,686.55h8.51v-6a9.83,9.83,0,0,0-.57-3.73,3.57,3.57,0,0,0-1.56-1.87,4.86,4.86,0,0,0-2.33-.52,3.64,3.64,0,0,0-2.13.62,4.23,4.23,0,0,0-1.4,2.13,13.76,13.76,0,0,0-.52,4.31Z" transform="translate(-297.58 -638.2)"/><path class="cls-1" d="M717.53,723.39v-60h16.91v10a33.77,33.77,0,0,1,5.81-7.93,9.87,9.87,0,0,1,7.06-2.75c.55,0,1,0,1.45,0a3.66,3.66,0,0,1,1.14.26v16.81a14.8,14.8,0,0,0-2.54-.88,11.38,11.38,0,0,0-3-.37,10,10,0,0,0-5.39,1.56,17.82,17.82,0,0,0-4.57,4.25v39Z" transform="translate(-297.58 -638.2)"/><path class="cls-1" d="M764.85,723.39l-12-60H769l5,38.29,4.56-38.29h16.19l-12.35,60Z" transform="translate(-297.58 -638.2)"/><path class="cls-1" d="M800.75,653.24V641.52h17v11.72Zm.1,70.15v-60h16.92v60Z" transform="translate(-297.58 -638.2)"/><path class="cls-1" d="M847.76,724.43A24.08,24.08,0,0,1,836.6,722a16.73,16.73,0,0,1-7.11-6.85A21.82,21.82,0,0,1,827,704.4v-22a22,22,0,0,1,2.49-10.89,16.45,16.45,0,0,1,7.11-6.8,24.47,24.47,0,0,1,11.16-2.33,27.18,27.18,0,0,1,10.94,2,14.57,14.57,0,0,1,6.9,6A19.51,19.51,0,0,1,868,680.43v6.33H851.7v-6.85a11.33,11.33,0,0,0-.47-3.68,3.28,3.28,0,0,0-1.35-1.82,4.16,4.16,0,0,0-2.12-.52,3.19,3.19,0,0,0-2.08.68,4.09,4.09,0,0,0-1.24,2.18A16.34,16.34,0,0,0,844,681v24.9c0,2.7.33,4.54,1,5.5a3.22,3.22,0,0,0,2.85,1.46,3.79,3.79,0,0,0,2.18-.57,3.44,3.44,0,0,0,1.24-1.87,11.69,11.69,0,0,0,.42-3.48v-8H868v7.27a19.41,19.41,0,0,1-2.44,10.11,15,15,0,0,1-6.95,6.13A26.55,26.55,0,0,1,847.76,724.43Z" transform="translate(-297.58 -638.2)"/><path class="cls-1" d="M896.42,724.43a24.8,24.8,0,0,1-11.21-2.34,16.33,16.33,0,0,1-7.16-6.84,22.16,22.16,0,0,1-2.49-10.85v-22a22,22,0,0,1,2.49-10.89,16.34,16.34,0,0,1,7.22-6.8,24.81,24.81,0,0,1,11.15-2.33,23.91,23.91,0,0,1,11.05,2.28,14.89,14.89,0,0,1,6.64,6.74,24.41,24.41,0,0,1,2.24,11v12H892.27V706a11.12,11.12,0,0,0,.52,3.73,4.07,4.07,0,0,0,1.45,2.08,3.89,3.89,0,0,0,2.18.62,4.35,4.35,0,0,0,2.23-.57,3.88,3.88,0,0,0,1.56-1.82,8.38,8.38,0,0,0,.57-3.42v-6.33h15.57v5.81q0,9.13-5.3,13.75T896.42,724.43Zm-4.15-37.88h8.51v-6a9.83,9.83,0,0,0-.57-3.73,3.57,3.57,0,0,0-1.56-1.87,4.86,4.86,0,0,0-2.33-.52,3.64,3.64,0,0,0-2.13.62,4.23,4.23,0,0,0-1.4,2.13,13.76,13.76,0,0,0-.52,4.31Z" transform="translate(-297.58 -638.2)"/><path class="cls-2" d="M298.86,767.89V737.36h7.95a22,22,0,0,1,3.71.3,8.39,8.39,0,0,1,3.11,1.15,5.7,5.7,0,0,1,2.13,2.41,9.31,9.31,0,0,1,.77,4.13,7.91,7.91,0,0,1-.54,3.11,4.9,4.9,0,0,1-1.55,2,5.45,5.45,0,0,1-2.39,1,6.14,6.14,0,0,1,3,1.15,5.73,5.73,0,0,1,1.82,2.47,9.86,9.86,0,0,1,.63,3.73,11.84,11.84,0,0,1-.63,4.09,7,7,0,0,1-1.79,2.81,7.26,7.26,0,0,1-2.88,1.62,13.47,13.47,0,0,1-3.94.53Zm6.74-18.32h1.32a4.71,4.71,0,0,0,2.34-.47,2.36,2.36,0,0,0,1.07-1.38,7.28,7.28,0,0,0,.29-2.18,4.22,4.22,0,0,0-.44-2,2.82,2.82,0,0,0-1.28-1.23,4.93,4.93,0,0,0-2.13-.41H305.6Zm0,13.61H307a3.64,3.64,0,0,0,3.07-1.13,5.53,5.53,0,0,0,.85-3.32,8.14,8.14,0,0,0-.38-2.75,2.66,2.66,0,0,0-1.25-1.49A4.79,4.79,0,0,0,307,754h-1.4Z" transform="translate(-297.58 -638.2)"/><path class="cls-2" d="M320.68,767.89V746.1h6.14v8.75H327a21.68,21.68,0,0,1,4,.32,8,8,0,0,1,2.88,1.05,4.73,4.73,0,0,1,1.75,2,7,7,0,0,1,.61,3.13,8,8,0,0,1-.51,3,4.65,4.65,0,0,1-1.62,2,7.47,7.47,0,0,1-2.87,1.15,21.2,21.2,0,0,1-4.2.36Zm6.14-3.51h.12a6.84,6.84,0,0,0,2.2-.28,2,2,0,0,0,1.17-.94,3.67,3.67,0,0,0,.36-1.75,3.6,3.6,0,0,0-.36-1.79,2,2,0,0,0-1.17-.89,6.9,6.9,0,0,0-2.13-.27h-.19Zm11.76,3.51V746.1h6.15v21.79Z" transform="translate(-297.58 -638.2)"/><path class="cls-2" d="M355.66,768.27a8.71,8.71,0,0,1-4.05-.87,6.16,6.16,0,0,1-2.59-2.49,8,8,0,0,1-.9-3.92v-8a8.05,8.05,0,0,1,.9-4,6.06,6.06,0,0,1,2.59-2.47,9,9,0,0,1,4.05-.85,9.9,9.9,0,0,1,4,.72,5.32,5.32,0,0,1,2.5,2.17,7,7,0,0,1,.87,3.67v2.3h-5.92v-2.49a3.9,3.9,0,0,0-.17-1.33,1.12,1.12,0,0,0-.49-.66,1.44,1.44,0,0,0-.77-.19,1.16,1.16,0,0,0-.75.24,1.48,1.48,0,0,0-.46.8,6,6,0,0,0-.15,1.52v9a3.85,3.85,0,0,0,.36,2,1.17,1.17,0,0,0,1,.52,1.44,1.44,0,0,0,.79-.2,1.28,1.28,0,0,0,.45-.68,4.34,4.34,0,0,0,.15-1.26V759H363v2.64a7.11,7.11,0,0,1-.89,3.68,5.46,5.46,0,0,1-2.52,2.22A9.62,9.62,0,0,1,355.66,768.27Z" transform="translate(-297.58 -638.2)"/><path class="cls-2" d="M373.37,768.27a9.59,9.59,0,0,1-4.05-.8,5.79,5.79,0,0,1-2.64-2.37,7.84,7.84,0,0,1-.92-4v-8.29a7.84,7.84,0,0,1,.92-4,5.79,5.79,0,0,1,2.64-2.37,10.68,10.68,0,0,1,8.11,0,5.82,5.82,0,0,1,2.65,2.37,7.64,7.64,0,0,1,.95,4v8.29a7.64,7.64,0,0,1-.95,4,5.82,5.82,0,0,1-2.65,2.37A9.61,9.61,0,0,1,373.37,768.27Zm0-4.08a1.28,1.28,0,0,0,.94-.32,1.7,1.7,0,0,0,.48-.9,7.06,7.06,0,0,0,.13-1.41v-9.13a7.06,7.06,0,0,0-.13-1.41,1.7,1.7,0,0,0-.48-.9,1.28,1.28,0,0,0-.94-.32,1.29,1.29,0,0,0-.94.32,1.78,1.78,0,0,0-.49.9,5.75,5.75,0,0,0-.15,1.41v9.13A5.75,5.75,0,0,0,372,763a1.78,1.78,0,0,0,.49.9A1.29,1.29,0,0,0,373.41,764.19Z" transform="translate(-297.58 -638.2)"/><path class="cls-2" d="M384.42,767.89V746.1h6.14v8.6h.91l3.31-8.6h6.6l-4.3,10.29,4.41,11.5H395l-3.54-9.65h-.91v9.65Z" transform="translate(-297.58 -638.2)"/><path class="cls-2" d="M410.84,768.27a9.53,9.53,0,0,1-4-.8,5.79,5.79,0,0,1-2.64-2.37,7.74,7.74,0,0,1-.92-4v-8.29a7.74,7.74,0,0,1,.92-4,5.79,5.79,0,0,1,2.64-2.37,10.65,10.65,0,0,1,8.1,0,5.84,5.84,0,0,1,2.66,2.37,7.64,7.64,0,0,1,.94,4v8.29a7.64,7.64,0,0,1-.94,4,5.84,5.84,0,0,1-2.66,2.37A9.53,9.53,0,0,1,410.84,768.27Zm0-4.08a1.28,1.28,0,0,0,.94-.32,1.69,1.69,0,0,0,.47-.9,6.39,6.39,0,0,0,.13-1.41v-9.13a6.39,6.39,0,0,0-.13-1.41,1.69,1.69,0,0,0-.47-.9,1.54,1.54,0,0,0-1.88,0,1.78,1.78,0,0,0-.49.9,5.75,5.75,0,0,0-.15,1.41v9.13a5.75,5.75,0,0,0,.15,1.41,1.78,1.78,0,0,0,.49.9A1.28,1.28,0,0,0,410.88,764.19Z" transform="translate(-297.58 -638.2)"/><path class="cls-2" d="M429,768.27a9.09,9.09,0,0,1-4.07-.85,6,6,0,0,1-2.6-2.49,8,8,0,0,1-.91-3.94v-8a7.94,7.94,0,0,1,.91-4,5.91,5.91,0,0,1,2.62-2.47,9.09,9.09,0,0,1,4.05-.85,8.67,8.67,0,0,1,4,.83,5.46,5.46,0,0,1,2.42,2.45,8.91,8.91,0,0,1,.81,4v4.37H427.5v4.19a4,4,0,0,0,.19,1.35,1.44,1.44,0,0,0,.53.76,1.38,1.38,0,0,0,.79.22,1.68,1.68,0,0,0,.81-.2,1.44,1.44,0,0,0,.57-.66,3.26,3.26,0,0,0,.2-1.25v-2.3h5.66v2.11a6.25,6.25,0,0,1-1.93,5A7.79,7.79,0,0,1,429,768.27Zm-1.51-13.76h3.09v-2.19a3.79,3.79,0,0,0-.2-1.36,1.29,1.29,0,0,0-.57-.67,1.75,1.75,0,0,0-.85-.19,1.29,1.29,0,0,0-.77.22,1.56,1.56,0,0,0-.51.78,4.84,4.84,0,0,0-.19,1.56Z" transform="translate(-297.58 -638.2)"/><path class="cls-2" d="M449.25,767.89V746.1h6.14v8.6h.91l3.32-8.6h6.59l-4.29,10.29,4.41,11.5h-6.49l-3.54-9.65h-.91v9.65Z" transform="translate(-297.58 -638.2)"/><path class="cls-2" d="M473,768.27a4.72,4.72,0,0,1-2.79-.8,5,5,0,0,1-1.7-2,6,6,0,0,1-.56-2.51,6.72,6.72,0,0,1,.81-3.43,7.45,7.45,0,0,1,2.13-2.34,15.3,15.3,0,0,1,2.9-1.6c1.06-.44,2.1-.83,3.13-1.19v-2.18a4.25,4.25,0,0,0-.11-1,1.45,1.45,0,0,0-.38-.68,1.15,1.15,0,0,0-.79-.24,1.28,1.28,0,0,0-.81.22,1.22,1.22,0,0,0-.4.62,5.49,5.49,0,0,0-.15.89l-.15,1.58-5.73-.22c.13-2.62.82-4.55,2.09-5.79s3.17-1.87,5.71-1.87a6.32,6.32,0,0,1,5,1.83,6.84,6.84,0,0,1,1.64,4.73v10.18c0,.91,0,1.7.06,2.38s.08,1.26.15,1.77.12.93.17,1.28h-5.51c-.07-.58-.16-1.21-.26-1.89a8.12,8.12,0,0,0-.23-1.2,5.49,5.49,0,0,1-1.41,2.41A3.73,3.73,0,0,1,473,768.27Zm2.19-4.15a1.58,1.58,0,0,0,.69-.15,2,2,0,0,0,.59-.42,5.21,5.21,0,0,0,.45-.52v-6c-.5.3-1,.61-1.4.92a6,6,0,0,0-1.09,1,4.71,4.71,0,0,0-.7,1.23,4.29,4.29,0,0,0-.24,1.48,3,3,0,0,0,.45,1.74A1.44,1.44,0,0,0,475.15,764.12Z" transform="translate(-297.58 -638.2)"/><path class="cls-2" d="M495.12,767.89v-8.78l-1,.07c-.33,0-.67,0-1,0a11.54,11.54,0,0,1-4.36-.66,4.08,4.08,0,0,1-2.18-1.89,6.29,6.29,0,0,1-.63-2.92V746.1h6.11v7.28a2.75,2.75,0,0,0,.45,1.73,2.48,2.48,0,0,0,1.85.64,2.17,2.17,0,0,0,.36,0l.39,0V746.1h6.15v21.79Z" transform="translate(-297.58 -638.2)"/><path class="cls-2" d="M512.24,768.27a9.11,9.11,0,0,1-4.08-.85,6,6,0,0,1-2.6-2.49,8.08,8.08,0,0,1-.9-3.94v-8a8.05,8.05,0,0,1,.9-4,6,6,0,0,1,2.62-2.47,9.17,9.17,0,0,1,4.06-.85,8.73,8.73,0,0,1,4,.83,5.44,5.44,0,0,1,2.41,2.45,8.91,8.91,0,0,1,.81,4v4.37h-8.74v4.19a4,4,0,0,0,.19,1.35,1.43,1.43,0,0,0,.52.76,1.41,1.41,0,0,0,.8.22,1.61,1.61,0,0,0,.8-.2,1.38,1.38,0,0,0,.57-.66,3.06,3.06,0,0,0,.21-1.25v-2.3h5.65v2.11a6.28,6.28,0,0,1-1.92,5A7.79,7.79,0,0,1,512.24,768.27Zm-1.51-13.76h3.09v-2.19a3.56,3.56,0,0,0-.21-1.36,1.24,1.24,0,0,0-.57-.67,1.71,1.71,0,0,0-.84-.19,1.29,1.29,0,0,0-.77.22,1.44,1.44,0,0,0-.51.78,4.84,4.84,0,0,0-.19,1.56Z" transform="translate(-297.58 -638.2)"/><path class="cls-2" d="M529.91,768.27a8.71,8.71,0,0,1-4-.87,6.08,6.08,0,0,1-2.58-2.49,8,8,0,0,1-.91-3.92v-8a8.05,8.05,0,0,1,.91-4,6,6,0,0,1,2.58-2.47,9,9,0,0,1,4-.85,9.86,9.86,0,0,1,4,.72,5.34,5.34,0,0,1,2.51,2.17,7.14,7.14,0,0,1,.86,3.67v2.3h-5.91v-2.49a4.17,4.17,0,0,0-.17-1.33,1.2,1.2,0,0,0-.49-.66,1.5,1.5,0,0,0-.78-.19,1.16,1.16,0,0,0-.75.24,1.54,1.54,0,0,0-.45.8,6,6,0,0,0-.15,1.52v9a3.87,3.87,0,0,0,.35,2,1.18,1.18,0,0,0,1,.52,1.42,1.42,0,0,0,.79-.2,1.28,1.28,0,0,0,.45-.68,4.29,4.29,0,0,0,.16-1.26V759h5.91v2.64a7.11,7.11,0,0,1-.88,3.68,5.44,5.44,0,0,1-2.53,2.22A9.55,9.55,0,0,1,529.91,768.27Z" transform="translate(-297.58 -638.2)"/><path class="cls-2" d="M543.11,767.89V750.25h-4V746.1h14v4.15h-4v17.64Z" transform="translate(-297.58 -638.2)"/><path class="cls-2" d="M555.73,767.89V746.1h7.73a13.27,13.27,0,0,1,4.94.7,4,4,0,0,1,2.22,1.9,6.59,6.59,0,0,1,.57,2.83,4.53,4.53,0,0,1-.93,3.15,5.06,5.06,0,0,1-2.43,1.41,5.46,5.46,0,0,1,2.42,1.13,3.91,3.91,0,0,1,1.14,1.85,8.76,8.76,0,0,1,.32,2.52,7.12,7.12,0,0,1-.79,3.53,4.73,4.73,0,0,1-2.67,2.09,15.7,15.7,0,0,1-5.13.68Zm6.11-13.19h1.54a1.61,1.61,0,0,0,1.51-.7,3.78,3.78,0,0,0,.42-1.94,4.11,4.11,0,0,0-.44-2c-.29-.53-.93-.79-1.94-.79h-1.09Zm0,9.8h1a6.52,6.52,0,0,0,1.47-.15,1.66,1.66,0,0,0,1-.81,4.24,4.24,0,0,0,.4-2.13,5.7,5.7,0,0,0-.36-2.38,1.5,1.5,0,0,0-1-.87,6.7,6.7,0,0,0-1.51-.15h-1Z" transform="translate(-297.58 -638.2)"/><path class="cls-2" d="M581.93,768.27a9.53,9.53,0,0,1-4-.8,5.7,5.7,0,0,1-2.64-2.37,7.74,7.74,0,0,1-.92-4v-8.29a7.74,7.74,0,0,1,.92-4,5.7,5.7,0,0,1,2.64-2.37,10.65,10.65,0,0,1,8.1,0,5.89,5.89,0,0,1,2.66,2.37,7.64,7.64,0,0,1,.94,4v8.29a7.64,7.64,0,0,1-.94,4,5.89,5.89,0,0,1-2.66,2.37A9.53,9.53,0,0,1,581.93,768.27Zm0-4.08a1.29,1.29,0,0,0,.94-.32,1.69,1.69,0,0,0,.47-.9,6.39,6.39,0,0,0,.13-1.41v-9.13a6.39,6.39,0,0,0-.13-1.41,1.69,1.69,0,0,0-.47-.9,1.29,1.29,0,0,0-.94-.32,1.28,1.28,0,0,0-.94.32,1.78,1.78,0,0,0-.49.9,5.26,5.26,0,0,0-.16,1.41v9.13a5.26,5.26,0,0,0,.16,1.41,1.78,1.78,0,0,0,.49.9A1.28,1.28,0,0,0,582,764.19Z" transform="translate(-297.58 -638.2)"/><path class="cls-2" d="M602.62,767.89V746.1h15.46v21.79h-6.15v-17.6h-3.16v17.6Z" transform="translate(-297.58 -638.2)"/><path class="cls-2" d="M629.05,768.27a9.61,9.61,0,0,1-4.06-.8,5.72,5.72,0,0,1-2.63-2.37,7.74,7.74,0,0,1-.93-4v-8.29a7.74,7.74,0,0,1,.93-4,5.72,5.72,0,0,1,2.63-2.37,10.68,10.68,0,0,1,8.11,0,5.89,5.89,0,0,1,2.66,2.37,7.74,7.74,0,0,1,.94,4v8.29a7.74,7.74,0,0,1-.94,4,5.89,5.89,0,0,1-2.66,2.37A9.59,9.59,0,0,1,629.05,768.27Zm0-4.08a1.3,1.3,0,0,0,.95-.32,1.76,1.76,0,0,0,.47-.9,7.06,7.06,0,0,0,.13-1.41v-9.13a7.06,7.06,0,0,0-.13-1.41,1.76,1.76,0,0,0-.47-.9,1.56,1.56,0,0,0-1.89,0,1.85,1.85,0,0,0-.49.9,5.75,5.75,0,0,0-.15,1.41v9.13a5.75,5.75,0,0,0,.15,1.41,1.85,1.85,0,0,0,.49.9A1.29,1.29,0,0,0,629.08,764.19Z" transform="translate(-297.58 -638.2)"/><path class="cls-2" d="M649.74,775.05V746.1h6.14v1.58a7.91,7.91,0,0,1,2.34-1.47,6.61,6.61,0,0,1,2.37-.49,4.41,4.41,0,0,1,2.13.49,4.1,4.1,0,0,1,1.46,1.38,6.48,6.48,0,0,1,.82,2,11.05,11.05,0,0,1,.27,2.49v9.39a10.2,10.2,0,0,1-.55,3.54,5.22,5.22,0,0,1-1.6,2.36,4,4,0,0,1-2.6.85,5.72,5.72,0,0,1-2.36-.55,9.6,9.6,0,0,1-2.28-1.49v8.82Zm7.76-10.74a1.31,1.31,0,0,0,1-.34,2.27,2.27,0,0,0,.51-.89,4.19,4.19,0,0,0,.16-1.22V751.68a4.06,4.06,0,0,0-.15-1.15,1.66,1.66,0,0,0-.49-.81,1.23,1.23,0,0,0-.86-.3,2.11,2.11,0,0,0-.93.21,3.27,3.27,0,0,0-.81.54v13.57a4.49,4.49,0,0,0,.81.42A2.32,2.32,0,0,0,657.5,764.31Z" transform="translate(-297.58 -638.2)"/><path class="cls-2" d="M673.26,768.27a4.72,4.72,0,0,1-2.79-.8,5,5,0,0,1-1.7-2,6,6,0,0,1-.56-2.51,6.72,6.72,0,0,1,.81-3.43,7.45,7.45,0,0,1,2.13-2.34,15.3,15.3,0,0,1,2.9-1.6c1.06-.44,2.1-.83,3.13-1.19v-2.18a4.25,4.25,0,0,0-.11-1,1.37,1.37,0,0,0-.38-.68,1.15,1.15,0,0,0-.79-.24,1.28,1.28,0,0,0-.81.22,1.22,1.22,0,0,0-.4.62,5.49,5.49,0,0,0-.15.89l-.15,1.58-5.73-.22c.13-2.62.82-4.55,2.09-5.79s3.17-1.87,5.71-1.87a6.32,6.32,0,0,1,5,1.83,6.84,6.84,0,0,1,1.64,4.73v10.18c0,.91,0,1.7.06,2.38s.08,1.26.15,1.77.12.93.17,1.28h-5.51c-.07-.58-.16-1.21-.26-1.89a8.12,8.12,0,0,0-.23-1.2,5.49,5.49,0,0,1-1.41,2.41A3.71,3.71,0,0,1,673.26,768.27Zm2.19-4.15a1.58,1.58,0,0,0,.69-.15,2,2,0,0,0,.59-.42,5.21,5.21,0,0,0,.45-.52v-6c-.5.3-1,.61-1.39.92a5.77,5.77,0,0,0-1.1,1,4.71,4.71,0,0,0-.7,1.23,4.29,4.29,0,0,0-.24,1.48,3,3,0,0,0,.45,1.74A1.44,1.44,0,0,0,675.45,764.12Z" transform="translate(-297.58 -638.2)"/><path class="cls-2" d="M693.2,768.3a8.86,8.86,0,0,1-3.64-.62,4.93,4.93,0,0,1-2.11-1.69,6.23,6.23,0,0,1-1-2.45,16.82,16.82,0,0,1-.24-2.89h4.86a4.76,4.76,0,0,0,.55,2.58,1.87,1.87,0,0,0,1.71.85,2,2,0,0,0,1.32-.37,2,2,0,0,0,.62-1.06,6.4,6.4,0,0,0,.17-1.51,3.28,3.28,0,0,0-.39-1.73,2.27,2.27,0,0,0-1.29-.93,8.39,8.39,0,0,0-2.39-.28V755a4.91,4.91,0,0,0,3-.61,2.69,2.69,0,0,0,.7-2.11,3,3,0,0,0-.44-1.73,1.69,1.69,0,0,0-1.52-.64,1.87,1.87,0,0,0-1.64.66,4.11,4.11,0,0,0-.47,2.31h-4.83a10.46,10.46,0,0,1,.6-3.6,5.16,5.16,0,0,1,2.17-2.61,8.37,8.37,0,0,1,4.47-1,9.19,9.19,0,0,1,4.16.82,5.18,5.18,0,0,1,2.34,2.18,6.52,6.52,0,0,1,.73,3.11,5.73,5.73,0,0,1-.45,2.41,3.85,3.85,0,0,1-1.17,1.53,4.83,4.83,0,0,1-1.58.81,6.16,6.16,0,0,1,1.68.91,4,4,0,0,1,1.19,1.6,7.17,7.17,0,0,1,.45,2.81,6.33,6.33,0,0,1-1.77,4.58C697.79,767.69,695.86,768.3,693.2,768.3Z" transform="translate(-297.58 -638.2)"/><path class="cls-2" d="M704.28,774.22V770a10.39,10.39,0,0,0,1.94-.15,2.14,2.14,0,0,0,1.17-.56,1.56,1.56,0,0,0,.4-1.13,6.9,6.9,0,0,0-.23-1.57c-.15-.61-.34-1.31-.56-2.09l-5.13-18.36h5.77l2.75,12.59,2.07-12.59h5.81l-5,22.32a8.09,8.09,0,0,1-1.54,3.52,5.69,5.69,0,0,1-2.59,1.77,10.77,10.77,0,0,1-3.44.51Z" transform="translate(-297.58 -638.2)"/><path class="cls-2" d="M720.53,767.89l.07-21.79h4.53l4.44,10.44,4.49-10.44h4.52l.08,21.79h-4.79V756.43l-3.35,8.07h-1.81l-3.4-8.11v11.5Z" transform="translate(-297.58 -638.2)"/><path class="cls-2" d="M742.5,767.89V746.1h6.15v8.44h3.65V746.1h6.18v21.79H752.3v-9.12h-3.65v9.12Z" transform="translate(-297.58 -638.2)"/><path class="cls-2" d="M762.29,767.89V746.1h6.15v8.75h.18a21.68,21.68,0,0,1,4,.32,7.87,7.87,0,0,1,2.88,1.05,4.82,4.82,0,0,1,1.76,2,7.19,7.19,0,0,1,.6,3.13,8,8,0,0,1-.51,3,4.65,4.65,0,0,1-1.62,2,7.47,7.47,0,0,1-2.87,1.15,21.13,21.13,0,0,1-4.2.36Zm6.15-3.51h.11a6.84,6.84,0,0,0,2.2-.28,2,2,0,0,0,1.17-.94,3.67,3.67,0,0,0,.36-1.75,3.6,3.6,0,0,0-.36-1.79,2,2,0,0,0-1.17-.89,6.9,6.9,0,0,0-2.13-.27h-.18Zm11.76,3.51V746.1h6.14v21.79Z" transform="translate(-297.58 -638.2)"/><path class="cls-2" d="M790.15,767.89l.07-21.79h4.53l4.44,10.44,4.49-10.44h4.52l.08,21.79h-4.79V756.43l-3.36,8.07h-1.8l-3.4-8.11v11.5Z" transform="translate(-297.58 -638.2)"/><path class="cls-2" d="M836.06,773.81l-.42-5.92H821.73V746.1h6.19v18h3.27v-18h6.15v18h3.13v9.69Z" transform="translate(-297.58 -638.2)"/><path class="cls-2" d="M850.27,768.27a9.06,9.06,0,0,1-4.07-.85,6,6,0,0,1-2.6-2.49,8,8,0,0,1-.91-3.94v-8a7.94,7.94,0,0,1,.91-4,5.94,5.94,0,0,1,2.61-2.47,9.17,9.17,0,0,1,4.06-.85,8.7,8.7,0,0,1,4,.83,5.44,5.44,0,0,1,2.41,2.45,8.91,8.91,0,0,1,.81,4v4.37h-8.74v4.19a4,4,0,0,0,.19,1.35,1.29,1.29,0,0,0,1.32,1,1.68,1.68,0,0,0,.81-.2,1.42,1.42,0,0,0,.56-.66,3.06,3.06,0,0,0,.21-1.25v-2.3h5.65v2.11a6.28,6.28,0,0,1-1.92,5A7.79,7.79,0,0,1,850.27,768.27Zm-1.51-13.76h3.09v-2.19a3.56,3.56,0,0,0-.21-1.36,1.27,1.27,0,0,0-.56-.67,1.75,1.75,0,0,0-.85-.19,1.29,1.29,0,0,0-.77.22,1.44,1.44,0,0,0-.51.78,4.84,4.84,0,0,0-.19,1.56Z" transform="translate(-297.58 -638.2)"/><path class="cls-2" d="M860.86,767.89V746.1H867v8.44h3.66V746.1h6.18v21.79h-6.18v-9.12H867v9.12Z" transform="translate(-297.58 -638.2)"/><path class="cls-2" d="M885.13,768.27a4.76,4.76,0,0,1-2.79-.8,4.9,4.9,0,0,1-1.69-2,5.89,5.89,0,0,1-.57-2.51,6.72,6.72,0,0,1,.81-3.43,7.45,7.45,0,0,1,2.13-2.34,15.3,15.3,0,0,1,2.9-1.6c1.06-.44,2.1-.83,3.13-1.19v-2.18a4.25,4.25,0,0,0-.11-1,1.37,1.37,0,0,0-.38-.68,1.13,1.13,0,0,0-.79-.24,1.28,1.28,0,0,0-.81.22,1.22,1.22,0,0,0-.4.62,5.49,5.49,0,0,0-.15.89l-.15,1.58-5.73-.22q.19-3.93,2.1-5.79c1.26-1.24,3.17-1.87,5.71-1.87a6.3,6.3,0,0,1,4.95,1.83,6.79,6.79,0,0,1,1.64,4.73v10.18c0,.91,0,1.7.06,2.38s.09,1.26.15,1.77.12.93.17,1.28h-5.5q-.12-.87-.27-1.89a8.8,8.8,0,0,0-.22-1.2,5.52,5.52,0,0,1-1.42,2.41A3.71,3.71,0,0,1,885.13,768.27Zm2.19-4.15a1.66,1.66,0,0,0,.7-.15,2.09,2.09,0,0,0,.58-.42,3.48,3.48,0,0,0,.45-.52v-6c-.5.3-1,.61-1.39.92a6.08,6.08,0,0,0-1.1,1,4.41,4.41,0,0,0-.69,1.23,4.07,4.07,0,0,0-.25,1.48,2.92,2.92,0,0,0,.46,1.74A1.42,1.42,0,0,0,887.32,764.12Z" transform="translate(-297.58 -638.2)"/><path class="cls-2" d="M898.55,767.89l.08-21.79h4.52l4.45,10.44,4.48-10.44h4.53l.07,21.79H911.9V756.43l-3.36,8.07h-1.81l-3.39-8.11v11.5Z" transform="translate(-297.58 -638.2)"/></svg>