<svg id="Layer_1" data-name="Layer 1" xmlns="http://www.w3.org/2000/svg" viewBox="0 0 977.96 855.28"><defs><style>.cls-1{fill:#664c99;}.cls-2{fill:#edad5b;}.cls-2,.cls-3{opacity:0.7;}.cls-3,.cls-5{fill:#ee717f;}.cls-4{fill:#2dabe3;opacity:0.5;}.cls-6{fill:#5376ba;}.cls-7{fill:#7a60a6;}.cls-8{fill:#ef808d;}.cls-9{fill:#f7bc71;}.cls-10{fill:#fff;}.cls-11{font-size:202.18px;fill:#010101;font-family:KaufmannBT-Regular, Kaufmann BT;}</style></defs><ellipse class="cls-1" cx="393.06" cy="274.82" rx="178.48" ry="185.34"/><ellipse class="cls-2" cx="620.77" cy="242.86" rx="135.4" ry="140.6"/><ellipse class="cls-3" cx="608.46" cy="472.94" rx="135.4" ry="140.6"/><ellipse class="cls-4" cx="485.38" cy="357.9" rx="240.02" ry="249.25"/><ellipse class="cls-5" cx="534.61" cy="38.35" rx="36.93" ry="38.35"/><ellipse class="cls-6" cx="817.71" cy="332.34" rx="36.93" ry="38.35"/><ellipse class="cls-7" cx="196.12" cy="402.64" rx="18.46" ry="19.17"/><ellipse class="cls-8" cx="774.63" cy="428.2" rx="18.46" ry="19.17"/><ellipse class="cls-9" cx="300.75" cy="600.76" rx="24.62" ry="25.56"/><path class="cls-10" d="M419.74,647.13V431.43c0-20.52,21.16-33.56,38.5-23.73l190.4,107.85c18.09,10.24,18.09,37.22,0,47.46L458.24,670.86C440.9,680.69,419.74,667.65,419.74,647.13Z" transform="translate(-20.53 -181.38)"/><text class="cls-11" transform="translate(9.15 796.24) scale(0.96 1)">Slava Pictures</text></svg>